<?xml version="1.0" encoding="iso-8859-1"?>
<!-- Generator: Adobe Illustrator 19.0.0, SVG Export Plug-In . SVG Version: 6.00 Build 0)  -->
<svg version="1.1" id="Capa_1" xmlns="http://www.w3.org/2000/svg" xmlns:xlink="http://www.w3.org/1999/xlink" x="0px" y="0px"
	 viewBox="0 0 512 512" style="enable-background:new 0 0 512 512;" xml:space="preserve">
<path style="fill:#F58E11;" d="M504,511.074H8c-4.418,0-8-3.582-8-8v-320L251.331,2.43c2.79-2.005,6.548-2.005,9.338,0L512,183.074
	v320C512,507.492,508.418,511.074,504,511.074z"/>
<path style="fill:#EEEBEA;" d="M472,55.074H40c-4.418,0-8,3.582-8,8v384c0,4.418,3.582,8,8,8h432c4.418,0,8-3.582,8-8v-384
	C480,58.656,476.418,55.074,472,55.074z"/>
<path style="fill:#D8D7DD;" d="M256,318.572l-224-143.5v272.002c0,4.418,3.582,8,8,8h432c4.418,0,8-3.582,8-8V175.072L256,318.572z"
	/>
<path id="SVGCleanerId_0" style="fill:#F7A541;" d="M504,511.074H27.318c-7.991,0-11.044-10.426-4.315-14.736L512,183.074v320
	C512,507.492,508.418,511.074,504,511.074z"/>
<g>
	<path id="SVGCleanerId_0_1_" style="fill:#F7A541;" d="M504,511.074H27.318c-7.991,0-11.044-10.426-4.315-14.736L512,183.074v320
		C512,507.492,508.418,511.074,504,511.074z"/>
</g>
<path style="fill:#F58E11;" d="M278.246,332.823L23.003,496.338c-6.729,4.311-3.676,14.736,4.315,14.736H504c4.418,0,8-3.582,8-8
	v-20.502L278.246,332.823z"/>
<path style="fill:#F9BB70;" d="M0,183.074v320c0,4.418,3.582,8,8,8h496c1.945,0,3.727-0.695,5.113-1.849L0,183.074z"/>
<circle style="fill:#8ED25E;" cx="256" cy="263.07" r="24"/>
<g>
	<path style="fill:#71AD31;" d="M357.823,161.251c-2.048,0-4.095-0.781-5.657-2.343c-25.687-25.687-59.839-39.834-96.166-39.834
		s-70.48,14.146-96.167,39.834c-3.124,3.124-8.189,3.124-11.313,0c-3.125-3.124-3.125-8.189,0-11.313
		c28.708-28.709,66.879-44.52,107.48-44.52s78.771,15.811,107.48,44.52C368.406,152.519,364.818,161.251,357.823,161.251z"/>
	<path style="fill:#71AD31;" d="M323.883,195.192c-2.048,0-4.095-0.781-5.657-2.343c-16.621-16.621-38.72-25.774-62.226-25.774
		s-45.604,9.153-62.226,25.774c-3.124,3.124-8.189,3.124-11.313,0c-3.125-3.124-3.125-8.189,0-11.313
		c19.643-19.643,45.76-30.461,73.539-30.461s53.896,10.818,73.54,30.461C334.466,186.46,330.878,195.192,323.883,195.192z"/>
	<path style="fill:#71AD31;" d="M295.598,223.476c-2.048,0-4.095-0.781-5.657-2.343c-9.065-9.066-21.119-14.059-33.94-14.059
		s-24.875,4.993-33.941,14.059c-3.124,3.124-8.189,3.124-11.313,0c-3.125-3.124-3.125-8.189,0-11.313
		c12.088-12.088,28.16-18.745,45.254-18.745s33.167,6.657,45.255,18.745C306.18,214.745,302.593,223.476,295.598,223.476z"/>
</g>
<g>
</g>
<g>
</g>
<g>
</g>
<g>
</g>
<g>
</g>
<g>
</g>
<g>
</g>
<g>
</g>
<g>
</g>
<g>
</g>
<g>
</g>
<g>
</g>
<g>
</g>
<g>
</g>
<g>
</g>
</svg>
